<?xml version="1.0" standalone="no"?>
<svg xmlns:xlink="http://www.w3.org/1999/xlink" id="wave" style="transform:rotate(0deg); transition: 0.3s" viewBox="0 0 1440 490" version="1.1" xmlns="http://www.w3.org/2000/svg"><defs><linearGradient id="sw-gradient-0" x1="0" x2="0" y1="1" y2="0"><stop stop-color="rgba(255, 133.476, 0, 1)" offset="0%"/><stop stop-color="rgba(255, 255, 255, 1)" offset="100%"/></linearGradient></defs><path style="transform:translate(0, 0px); opacity:1" fill="url(#sw-gradient-0)" d="M0,98L80,130.7C160,163,320,229,480,261.3C640,294,800,294,960,285.8C1120,278,1280,261,1440,269.5C1600,278,1760,310,1920,326.7C2080,343,2240,343,2400,343C2560,343,2720,343,2880,343C3040,343,3200,343,3360,351.2C3520,359,3680,376,3840,343C4000,310,4160,229,4320,163.3C4480,98,4640,49,4800,40.8C4960,33,5120,65,5280,98C5440,131,5600,163,5760,187.8C5920,212,6080,229,6240,261.3C6400,294,6560,343,6720,375.7C6880,408,7040,425,7200,359.3C7360,294,7520,147,7680,138.8C7840,131,8000,261,8160,318.5C8320,376,8480,359,8640,334.8C8800,310,8960,278,9120,253.2C9280,229,9440,212,9600,220.5C9760,229,9920,261,10080,285.8C10240,310,10400,327,10560,351.2C10720,376,10880,408,11040,359.3C11200,310,11360,180,11440,114.3L11520,49L11520,490L11440,490C11360,490,11200,490,11040,490C10880,490,10720,490,10560,490C10400,490,10240,490,10080,490C9920,490,9760,490,9600,490C9440,490,9280,490,9120,490C8960,490,8800,490,8640,490C8480,490,8320,490,8160,490C8000,490,7840,490,7680,490C7520,490,7360,490,7200,490C7040,490,6880,490,6720,490C6560,490,6400,490,6240,490C6080,490,5920,490,5760,490C5600,490,5440,490,5280,490C5120,490,4960,490,4800,490C4640,490,4480,490,4320,490C4160,490,4000,490,3840,490C3680,490,3520,490,3360,490C3200,490,3040,490,2880,490C2720,490,2560,490,2400,490C2240,490,2080,490,1920,490C1760,490,1600,490,1440,490C1280,490,1120,490,960,490C800,490,640,490,480,490C320,490,160,490,80,490L0,490Z"/><defs><linearGradient id="sw-gradient-1" x1="0" x2="0" y1="1" y2="0"><stop stop-color="rgba(255, 150.754, 0, 1)" offset="0%"/><stop stop-color="rgba(11, 255, 30.977, 1)" offset="100%"/></linearGradient></defs><path style="transform:translate(0, 50px); opacity:0.9" fill="url(#sw-gradient-1)" d="M0,441L80,416.5C160,392,320,343,480,334.8C640,327,800,359,960,343C1120,327,1280,261,1440,236.8C1600,212,1760,229,1920,212.3C2080,196,2240,147,2400,122.5C2560,98,2720,98,2880,81.7C3040,65,3200,33,3360,57.2C3520,82,3680,163,3840,220.5C4000,278,4160,310,4320,318.5C4480,327,4640,310,4800,253.2C4960,196,5120,98,5280,81.7C5440,65,5600,131,5760,138.8C5920,147,6080,98,6240,130.7C6400,163,6560,278,6720,269.5C6880,261,7040,131,7200,138.8C7360,147,7520,294,7680,343C7840,392,8000,343,8160,310.3C8320,278,8480,261,8640,236.8C8800,212,8960,180,9120,163.3C9280,147,9440,147,9600,171.5C9760,196,9920,245,10080,228.7C10240,212,10400,131,10560,122.5C10720,114,10880,180,11040,212.3C11200,245,11360,245,11440,245L11520,245L11520,490L11440,490C11360,490,11200,490,11040,490C10880,490,10720,490,10560,490C10400,490,10240,490,10080,490C9920,490,9760,490,9600,490C9440,490,9280,490,9120,490C8960,490,8800,490,8640,490C8480,490,8320,490,8160,490C8000,490,7840,490,7680,490C7520,490,7360,490,7200,490C7040,490,6880,490,6720,490C6560,490,6400,490,6240,490C6080,490,5920,490,5760,490C5600,490,5440,490,5280,490C5120,490,4960,490,4800,490C4640,490,4480,490,4320,490C4160,490,4000,490,3840,490C3680,490,3520,490,3360,490C3200,490,3040,490,2880,490C2720,490,2560,490,2400,490C2240,490,2080,490,1920,490C1760,490,1600,490,1440,490C1280,490,1120,490,960,490C800,490,640,490,480,490C320,490,160,490,80,490L0,490Z"/><defs><linearGradient id="sw-gradient-2" x1="0" x2="0" y1="1" y2="0"><stop stop-color="rgba(13.679, 255, 0, 1)" offset="0%"/><stop stop-color="rgba(0, 255, 29.517, 1)" offset="100%"/></linearGradient></defs><path style="transform:translate(0, 100px); opacity:0.8" fill="url(#sw-gradient-2)" d="M0,196L80,228.7C160,261,320,327,480,294C640,261,800,131,960,65.3C1120,0,1280,0,1440,65.3C1600,131,1760,261,1920,269.5C2080,278,2240,163,2400,171.5C2560,180,2720,310,2880,367.5C3040,425,3200,408,3360,367.5C3520,327,3680,261,3840,220.5C4000,180,4160,163,4320,147C4480,131,4640,114,4800,147C4960,180,5120,261,5280,245C5440,229,5600,114,5760,65.3C5920,16,6080,33,6240,98C6400,163,6560,278,6720,294C6880,310,7040,229,7200,179.7C7360,131,7520,114,7680,89.8C7840,65,8000,33,8160,57.2C8320,82,8480,163,8640,187.8C8800,212,8960,180,9120,147C9280,114,9440,82,9600,65.3C9760,49,9920,49,10080,40.8C10240,33,10400,16,10560,49C10720,82,10880,163,11040,212.3C11200,261,11360,278,11440,285.8L11520,294L11520,490L11440,490C11360,490,11200,490,11040,490C10880,490,10720,490,10560,490C10400,490,10240,490,10080,490C9920,490,9760,490,9600,490C9440,490,9280,490,9120,490C8960,490,8800,490,8640,490C8480,490,8320,490,8160,490C8000,490,7840,490,7680,490C7520,490,7360,490,7200,490C7040,490,6880,490,6720,490C6560,490,6400,490,6240,490C6080,490,5920,490,5760,490C5600,490,5440,490,5280,490C5120,490,4960,490,4800,490C4640,490,4480,490,4320,490C4160,490,4000,490,3840,490C3680,490,3520,490,3360,490C3200,490,3040,490,2880,490C2720,490,2560,490,2400,490C2240,490,2080,490,1920,490C1760,490,1600,490,1440,490C1280,490,1120,490,960,490C800,490,640,490,480,490C320,490,160,490,80,490L0,490Z"/><defs><linearGradient id="sw-gradient-3" x1="0" x2="0" y1="1" y2="0"><stop stop-color="rgba(0, 255, 89.991, 1)" offset="0%"/><stop stop-color="rgba(255, 113.918, 11, 1)" offset="100%"/></linearGradient></defs><path style="transform:translate(0, 150px); opacity:0.7" fill="url(#sw-gradient-3)" d="M0,98L80,89.8C160,82,320,65,480,49C640,33,800,16,960,40.8C1120,65,1280,131,1440,187.8C1600,245,1760,294,1920,285.8C2080,278,2240,212,2400,212.3C2560,212,2720,278,2880,285.8C3040,294,3200,245,3360,245C3520,245,3680,294,3840,285.8C4000,278,4160,212,4320,204.2C4480,196,4640,245,4800,253.2C4960,261,5120,229,5280,236.8C5440,245,5600,294,5760,294C5920,294,6080,245,6240,261.3C6400,278,6560,359,6720,367.5C6880,376,7040,310,7200,310.3C7360,310,7520,376,7680,375.7C7840,376,8000,310,8160,269.5C8320,229,8480,212,8640,204.2C8800,196,8960,196,9120,212.3C9280,229,9440,261,9600,228.7C9760,196,9920,98,10080,57.2C10240,16,10400,33,10560,32.7C10720,33,10880,16,11040,73.5C11200,131,11360,261,11440,326.7L11520,392L11520,490L11440,490C11360,490,11200,490,11040,490C10880,490,10720,490,10560,490C10400,490,10240,490,10080,490C9920,490,9760,490,9600,490C9440,490,9280,490,9120,490C8960,490,8800,490,8640,490C8480,490,8320,490,8160,490C8000,490,7840,490,7680,490C7520,490,7360,490,7200,490C7040,490,6880,490,6720,490C6560,490,6400,490,6240,490C6080,490,5920,490,5760,490C5600,490,5440,490,5280,490C5120,490,4960,490,4800,490C4640,490,4480,490,4320,490C4160,490,4000,490,3840,490C3680,490,3520,490,3360,490C3200,490,3040,490,2880,490C2720,490,2560,490,2400,490C2240,490,2080,490,1920,490C1760,490,1600,490,1440,490C1280,490,1120,490,960,490C800,490,640,490,480,490C320,490,160,490,80,490L0,490Z"/></svg>